<svg xmlns="http://www.w3.org/2000/svg" viewBox="0 0 420 340"><rect width="100%" height="100%" fill="white"/><polygon points="206.04,62.87 206.11,62.49 206.34,62.12 206.70,61.79 207.20,61.50 207.80,61.26 208.48,61.08 209.23,60.97 210.00,60.93 210.77,60.97 211.52,61.08 212.20,61.26 212.80,61.50 213.30,61.79 213.66,62.12 213.89,62.49 213.96,62.87 213.96,214.98 213.89,215.36 213.66,215.73 213.30,216.06 212.80,216.35 212.20,216.59 211.52,216.77 210.77,216.88 210.00,216.92 209.23,216.88 208.48,216.77 207.80,216.59 207.20,216.35 206.70,216.06 206.34,215.73 206.11,215.36 206.04,214.98" fill="#514039" stroke="#514039" stroke-width="0.9"/><polygon points="176.96,41.13 177.60,37.99 179.48,34.96 182.53,32.17 186.64,29.73 191.65,27.72 197.36,26.23 203.55,25.31 210.00,25.00 216.45,25.31 222.64,26.23 228.35,27.72 233.36,29.73 237.47,32.17 240.52,34.96 242.40,37.99 243.04,41.13 243.04,57.43 242.40,60.58 240.52,63.61 237.47,66.40 233.36,68.84 228.35,70.85 222.64,72.34 216.45,73.26 210.00,73.57 203.55,73.26 197.36,72.34 191.65,70.85 186.64,68.84 182.53,66.40 179.48,63.61 177.60,60.58 176.96,57.43" fill="#bc9163" stroke="#514039" stroke-width="0.9"/><polygon points="110.89,266.60 112.79,257.15 118.43,248.07 127.59,239.70 182.53,203.30 186.64,200.86 191.65,198.85 197.36,197.36 203.55,196.44 210.00,196.13 216.45,196.44 222.64,197.36 228.35,198.85 233.36,200.86 237.47,203.30 292.41,239.70 301.57,248.07 307.21,257.15 309.11,266.60 307.21,276.04 301.57,285.12 292.41,293.49 280.08,300.82 265.06,306.84 247.93,311.32 229.34,314.07 210.00,315.00 190.66,314.07 172.07,311.32 154.94,306.84 139.92,300.82 127.59,293.49 118.43,285.12 112.79,276.04" fill="#eee4ce" stroke="#514039" stroke-width="0.9"/></svg>